<svg width="68" height="106" viewBox="0 0 68 106" fill="none" xmlns="http://www.w3.org/2000/svg">
<path opacity="0.3" d="M26.7733 106V93.3067H36.6293V106H26.7733ZM29.3119 78.672L27.3706 54.48L28.1173 53.7333C37.9733 53.5342 45.5893 51.2942 50.9653 47.0133C56.4408 42.7324 59.1786 36.9084 59.1786 29.5413C59.1786 23.2693 56.8888 17.9431 52.3093 13.5627C47.7297 9.18221 41.7564 6.99199 34.3893 6.99199C23.5377 6.99199 13.9306 12.1191 5.56792 22.3733L0.191916 17.8933C4.77147 12.1191 9.79903 7.73866 15.2746 4.75199C20.7501 1.66576 27.2213 0.122652 34.6879 0.122652C44.3448 0.122652 52.1599 2.95999 58.1333 8.63466C64.1066 14.2098 67.0933 21.1787 67.0933 29.5413C67.0933 38.3022 64.1066 45.3209 58.1333 50.5973C52.2595 55.7742 44.6933 58.9102 35.4346 60.0053L34.0906 78.672H29.3119Z" fill="white"/>
</svg>
